<svg xmlns="http://www.w3.org/2000/svg"><symbol viewBox="0 0 512 512" id="icon"> <path fill="currentColor" d="m 252.86695,455.71919 c -4.36757,-4.52011 -6.80236,-9.18685 -11.23798,-21.53943 -7.11107,-19.8038 -13.00841,-30.11817 -32.49445,-56.83229 -18.84842,-25.83992 -24.06436,-31.96077 -40.70879,-47.77057 -17.98762,-17.08572 -28.2961,-28.43492 -37.90943,-41.73723 -12.55487,-17.37246 -21.12192,-35.91321 -24.42393,-52.85822 -1.50679,-7.73246 -1.61135,-21.40838 -0.21512,-28.11942 2.18281,-10.49067 6.41002,-20.54754 12.09168,-28.76727 4.26557,-6.17106 12.00608,-13.87313 18.25221,-18.16155 6.13057,-4.20922 10.08977,-6.23453 18.76007,-9.59696 21.41931,-8.3067 41.4249,-19.76447 57.51202,-32.93855 7.71001,-6.31398 20.83348,-19.664508 26.53401,-26.993254 6.77344,-8.708049 14.0282,-20.521882 17.25718,-28.102024 0.50913,-1.195064 1.06581,-2.172858 1.23715,-2.172858 0.17148,0 0.94188,1.485837 1.71246,3.301851 0.77054,1.816039 3.16197,6.313463 5.31434,9.994294 10.80259,18.473976 27.27406,36.405181 46.34437,50.451361 12.78237,9.41483 29.41473,18.48442 46.7335,25.48376 5.33143,2.15469 11.26936,4.7297 13.1954,5.72224 8.07029,4.15891 16.01692,10.43648 21.53642,17.01306 31.23792,37.22008 21.50293,86.80921 -27.35892,139.36471 -2.53982,2.73186 -10.5678,10.65299 -17.83995,17.60249 -12.94074,12.36677 -19.78268,19.77866 -27.82121,30.13883 -5.34803,6.89255 -21.95413,29.7382 -26.02596,35.80452 -8.60461,12.81992 -15.44133,26.22545 -19.81639,38.85596 -4.10508,11.85125 -6.99333,17.46621 -11.24283,21.85655 -2.31121,2.38779 -3.98205,3.70664 -4.69603,3.70664 -0.71457,0 -2.38088,-1.31695 -4.68999,-3.70664 z m 11.04468,-81.16298 c 5.18109,-9.01531 13.76219,-18.03304 34.72527,-36.49186 36.10774,-31.79429 54.39751,-52.21768 70.41623,-78.63074 11.24984,-18.54969 13.45528,-24.11214 13.85911,-34.95517 0.29134,-7.81907 -0.62652,-12.6065 -3.57175,-18.63207 -4.47438,-9.15402 -13.42505,-18.07278 -22.34585,-22.26617 -8.84017,-4.15546 -20.26716,-4.3772 -27.649,-0.53644 -8.73139,4.54299 -15.62404,15.05047 -19.22033,29.30038 -2.35473,9.33041 -4.35401,28.2777 -4.23623,40.14749 0.0383,3.86616 -0.12116,7.02461 -0.35442,7.01873 -0.23335,0 -2.32897,-1.47735 -4.65684,-3.2702 -21.1023,-16.25234 -31.36526,-30.43176 -33.40232,-46.1488 -1.00022,-7.71714 0.83181,-15.76381 5.4486,-23.93205 3.54754,-6.27656 12.40159,-15.14743 21.10704,-21.14707 3.76568,-2.59533 6.84668,-5.00201 6.84668,-5.34839 0,-0.34625 -1.40046,-1.65554 -3.11213,-2.90939 -3.68095,-2.69648 -22.76971,-22.14714 -30.44384,-31.02107 -2.96252,-3.42578 -5.69301,-6.34935 -6.06769,-6.497 -0.71343,-0.28111 -1.54787,0.57373 -10.17556,10.42487 -7.74664,8.84518 -22.1801,23.42934 -26.26105,26.53517 -1.98553,1.51109 -3.60809,3.11848 -3.60571,3.5719 0.003,0.4534 1.40284,1.73192 3.11214,2.84131 15.55465,10.09471 24.37863,19.98505 28.59262,32.04809 1.17362,3.35947 1.32125,4.54514 1.36017,10.92615 0.038,6.1532 -0.11979,7.69569 -1.12203,10.99209 -2.75096,9.04928 -7.98481,17.28805 -16.52701,26.01598 -4.45029,4.54706 -15.61678,14.10902 -19.185,16.42822 l -1.46362,0.95141 -0.0589,-9.55535 c -0.19563,-31.83552 -6.56708,-53.90244 -18.50156,-64.07862 -6.29968,-5.37151 -15.69964,-7.36515 -25.0907,-5.32144 -11.67483,2.54065 -24.50661,13.38968 -30.01262,25.37532 -5.23944,11.40526 -4.76289,24.53427 1.3436,37.01928 4.00384,8.18589 13.71794,23.76081 21.04993,33.74987 14.16987,19.30491 29.36488,35.1797 56.73257,59.27038 23.5401,20.72131 31.90277,29.52485 36.882,38.82589 1.21281,2.26541 2.10551,3.38848 2.61328,3.28733 0.42415,-0.0843 1.76289,-1.87906 2.97488,-3.98803 z" /></symbol></svg>
