<svg xmlns="http://www.w3.org/2000/svg"><symbol viewBox="0 0 512 512" id="icon"><path fill="currentColor" d="m 96.956507,424.99128 c -2.921605,-1.18053 -3.378412,-4.12302 -1.320378,-8.50551 2.092981,-4.45659 36.720011,-58.39401 43.093701,-67.12565 2.42635,-3.32384 42.12957,-43.13539 88.22946,-88.47003 49.81087,-48.9839 83.93769,-83.26593 84.11291,-84.4954 0.24528,-1.72216 -0.98648,-2.65405 -7.35245,-5.56196 -37.21978,-17.00137 -72.091,-19.56062 -98.74257,-7.24686 -31.04763,14.34491 -54.44243,48.29819 -64.6751,93.8641 -4.81399,21.43657 -8.68872,30.00644 -14.90779,32.97211 -3.34513,1.5952 -3.59037,1.57352 -7.86341,-0.69324 -9.81866,-5.20884 -16.43618,-16.1838 -17.625828,-29.23188 -1.661138,-18.21916 9.419458,-49.46613 28.246748,-79.65518 8.92063,-14.30387 12.09241,-18.19124 21.38304,-26.20701 16.43315,-14.17813 35.35896,-25.08283 52.43816,-30.21387 l 9.27892,-2.7876 2.57836,-7.87923 c 1.41808,-4.33364 5.00836,-12.84787 7.97837,-18.9206 5.8804,-12.023505 7.42373,-13.323078 13.05292,-10.99137 4.96565,2.056829 12.98006,11.976186 18.93236,23.43231 l 5.56107,10.70323 6.59478,0.63019 c 24.87029,2.37665 47.71432,10.77095 65.42851,24.0425 4.30573,3.22586 8.54775,5.86601 9.42676,5.86694 0.87899,9.3e-4 15.65744,-10.67083 32.841,-23.71516 43.70942,-33.180506 45.06025,-34.122415 48.93617,-34.122415 6.06021,0 8.27528,7.081815 4.27002,13.651785 -1.12604,1.84708 -12.2073,17.50783 -24.62497,34.80162 l -22.57766,31.44332 -94.09061,94.21292 c -69.44925,69.53966 -93.99754,94.69983 -93.7353,96.0722 0.72775,3.80807 29.0375,12.83375 47.57125,15.16666 11.08984,1.39589 29.39954,0.68136 38.30171,-1.49475 36.88031,-9.01514 65.92224,-39.30222 80.79555,-84.25964 4.44992,-13.45083 7.28091,-18.45339 11.75118,-20.765 4.55071,-2.35326 12.46524,-1.48355 16.83591,1.85014 15.97467,12.18444 10.09032,40.86035 -16.56147,80.70798 l -9.26642,13.85446 3.45902,7.28364 c 6.52834,13.7467 6.18569,25.99372 -0.99276,35.48539 -3.29704,4.35948 -22.57699,-1.47683 -33.22344,-10.05728 -2.09607,-1.68931 -4.42092,-3.07139 -5.16634,-3.07139 -0.7454,0 -5.2065,1.92688 -9.91355,4.28209 -18.34283,9.17775 -34.75654,13.20655 -57.21544,14.04374 -30.17995,1.12481 -57.97167,-5.10232 -86.47081,-19.37537 -6.38366,-3.19704 -12.03985,-5.81284 -12.56938,-5.81284 -0.52953,0 -12.07016,7.87472 -25.64579,17.49949 -13.57575,9.62469 -25.64671,18.00657 -26.82443,18.62628 -2.47136,1.30049 -6.743906,1.37348 -9.731983,0.16601 z"/></symbol></svg>
