<svg xmlns="http://www.w3.org/2000/svg">
  <symbol viewBox="0 0 512 512" id="icon">
    <path
      style="opacity:0.77600002;fill:currentColor;fill-opacity:1;fill-rule:nonzero;stroke:none;stroke-width:1.00157475;stroke-linecap:round;stroke-miterlimit:4;stroke-dasharray:none;stroke-dashoffset:0;stroke-opacity:1"
      d="m 117.41433,22.627012 c -0.25508,-0.01037 -0.45453,0.01343 -0.55191,0.05323 -1.77232,0.300933 -2.36444,1.136137 -2.87372,1.550293 -4.60644,4.839503 -7.1044,9.172112 -11.15126,14.101982 -3.705979,3.989853 -6.926409,8.166322 -11.296979,11.900565 -2.09231,0.389478 -4.161056,0.671961 -6.409428,1.763717 -1.617433,0.778105 -4.038412,2.561458 -5.633248,5.332491 -0.204931,0.732145 -0.976346,2.459381 0.322978,2.798796 l 4.016292,0.517281 c 3.372898,0.920374 5.073188,2.117254 7.070886,3.889685 l 7.356141,7.627441 c 0.74638,0.55369 1.155993,0.437158 1.485183,0.394808 0.282445,-0.134211 1.633335,-0.389061 2.883025,-7.453809 0.14241,-1.112012 0.57373,-3.90925 -0.17002,-7.441406 2.97909,-5.13165 5.23552,-8.942111 7.83466,-13.422436 3.29305,-5.749125 3.31611,-4.953446 9.40046,-16.542143 0.76675,-2.095881 0.35854,-3.233685 0.2341,-3.540869 -0.48884,-1.1577 -1.75193,-1.498525 -2.51716,-1.529623 z m -57.82489,7.817094 c -1.242656,-0.04876 -2.613964,0.109016 -3.148129,0.42323 -4.204125,1.182054 -8.204165,3.58662 -12.256099,5.681824 -3.379662,1.685366 -6.59604,4.023514 -9.817489,6.341732 -6.358799,5.094193 -10.369823,10.806201 -13.659631,16.708024 -4.51706,10.773945 -4.190897,11.27165 -5.122168,17.683675 -0.190701,10.81607 3.658677,17.249551 5.488037,19.147668 1.998098,2.66707 3.992864,5.034051 8.236707,6.707601 3.621454,0.74757 4.786775,0.29474 6.494177,0.0305 1.875406,-0.39253 2.701673,-1.47252 3.442684,-2.35696 0.422593,-0.64869 0.856505,-1.679771 1.053682,-2.608629 0.155388,-1.35872 0.212234,-4.4739 -0.47594,-5.85804 -0.425383,-0.908237 -1.863839,-3.135878 -4.878255,-6.525183 -2.220857,-3.874757 -3.128811,-4.050427 -4.122229,-8.97878 -0.642374,-6.641431 1.23395,-11.68029 3.055111,-16.754017 2.515608,-4.619258 3.61554,-7.840527 12.095902,-16.005741 4.694058,-3.485239 10.22469,-7.093235 15.208891,-10.122896 1.467433,-0.790156 1.757772,-2.993993 -0.430981,-3.394625 -0.349876,-0.06404 -0.750052,-0.103118 -1.16427,-0.119373 z m 15.664677,7.800041 a 7.0146112,5.5502238 0 0 0 -7.014559,5.550049 7.0146112,5.5502238 0 0 0 7.014559,5.550565 7.0146112,5.5502238 0 0 0 7.014559,-5.550565 7.0146112,5.5502238 0 0 0 -7.014559,-5.550049 z m -19.50837,8.904883 a 9.5841217,7.2342739 0 0 0 -9.583911,7.234184 9.5841217,7.2342739 0 0 0 9.583911,7.234183 9.5841217,7.2342739 0 0 0 9.583911,-7.234183 9.5841217,7.2342739 0 0 0 -9.583911,-7.234184 z m 22.73918,15.683797 c -1.497652,-0.04772 -3.127251,0.119592 -4.851383,0.623218 -1.276721,0.372933 -2.214971,1.166261 -3.444751,2.144572 -3.805307,3.027184 -7.445383,7.060898 -7.834147,7.546826 -1.60041,2.156432 -3.424349,5.951997 -4.428671,10.038147 -1.041489,4.237365 -2.356233,8.303786 -4.952152,13.782104 -2.900819,1.638159 -5.740514,3.189586 -8.641333,6.003766 -0.787911,0.77503 -1.547009,1.7762 0.295072,2.97036 3.316659,1.38 9.149144,2.11092 17.290418,1.76786 6.521097,-0.8733 11.822681,-0.92407 18.454687,-5.34645 2.941083,-2.06314 6.204575,-4.4442 10.52959,-10.224181 3.114144,-6.236148 6.750361,-11.738168 3.498495,-17.88108 -1.632505,-3.083865 -3.816722,-6.359879 -6.985621,-8.455814 -1.129185,-0.746853 -4.437246,-2.82618 -8.930204,-2.969328 z M 46.59385,66.062604 a 8.933383,6.9515738 0 0 0 -8.933304,6.951514 8.933383,6.9515738 0 0 0 8.933304,6.951513 8.933383,6.9515738 0 0 0 8.933305,-6.951513 8.933383,6.9515738 0 0 0 -8.933305,-6.951514 z m 31.785657,7.116878 c 3.907255,-0.121733 6.916207,3.585199 7.880656,8.066691 -0.364343,2.721166 -2.641225,6.466579 -5.640482,10.00094 -3.138126,3.145271 -4.966209,3.998658 -8.156092,5.329391 -2.519966,1.051262 -5.525622,1.069841 -8.094596,0.981852 -0.150864,-1.276029 -0.481394,-5.858638 0.607715,-9.195304 1.320657,-4.046058 1.855272,-4.556153 2.806547,-6.55929 1.193193,-1.84731 3.733905,-5.396149 7.7618,-7.890474 0.983295,-0.473391 1.932778,-0.705713 2.834452,-0.733806 z"
    />
  </symbol>
  <use href="#icon" x="0" y="0" width="512" height="512" />
</svg>