<svg xmlns="http://www.w3.org/2000/svg">
  <symbol viewBox="0 0 512 512" id="icon">
    <path
      style="fill:currentColor;"
      d="m 439.77368,84.540468 c -0.91514,-0.04216 -1.63075,0.05388 -1.98016,0.213863 -6.35901,1.208533 -8.48315,4.563001 -10.31075,6.22617 -16.52749,19.436389 -25.48978,36.838659 -40.01109,56.635479 -13.29661,16.02404 -24.8513,32.79763 -40.53377,47.79698 -7.50712,1.5642 -14.9293,2.69874 -22.99649,7.08351 -5.80329,3.12507 -14.48936,10.28753 -20.21135,21.41644 -0.73525,2.94045 -3.50302,9.87736 1.15885,11.2407 l 14.40987,2.07751 c 12.10169,3.69657 18.20191,8.5035 25.36964,15.62185 l 26.39286,30.63355 c 2.67792,2.22376 4.14739,1.75573 5.32852,1.58564 1.0133,-0.53895 5.86029,-1.56255 10.34379,-29.93627 0.511,-4.46608 2.05845,-15.70025 -0.60998,-29.88617 10.68862,-20.6099 18.78448,-35.91342 28.10976,-53.90589 11.81494,-23.08976 11.8977,-19.89411 33.72792,-66.43589 2.75102,-8.41747 1.28637,-12.987367 0.83993,-14.220765 -1.75397,-4.649755 -6.28568,-6.018541 -9.03125,-6.143403 z M 232.30624,115.93554 c -4.45846,-0.19579 -9.37864,0.43786 -11.29516,1.69979 -15.08392,4.74739 -29.43571,14.40479 -43.97481,22.81935 -12.126,6.76881 -23.66581,16.15943 -35.22413,25.46982 -22.81462,20.45926 -37.20525,43.40129 -49.009298,67.10377 -16.206616,43.27063 -15.036374,45.27064 -18.377588,71.02032 -0.684134,43.44122 13.126746,69.27801 19.690479,76.90055 7.168827,10.71149 14.326017,20.21789 29.552217,26.93916 12.99354,3.00244 17.17432,1.18381 23.3003,0.12232 6.72889,-1.57653 9.69333,-5.91401 12.35215,-9.46611 1.51623,-2.60531 3.07304,-6.74631 3.78042,-10.477 0.55757,-5.45701 0.76146,-17.96815 -1.70764,-23.52716 -1.52621,-3.64757 -6.68714,-12.59426 -17.5028,-26.20629 -7.9681,-15.56197 -11.22583,-16.26724 -14.79027,-36.0608 -2.30477,-26.67346 4.42724,-46.9113 10.96157,-67.2889 9.02582,-18.55181 12.97212,-31.48945 43.39768,-64.28344 16.84182,-13.99752 36.68621,-28.48797 54.56651,-40.65718 5.265,-3.17345 6.30674,-12.02438 -1.54629,-13.63346 -1.25536,-0.25721 -2.69112,-0.41416 -4.17715,-0.47946 z m 56.20354,31.32683 a 25.167818,22.290854 0 0 0 -25.16746,22.29013 25.167818,22.290854 0 0 0 25.16746,22.29231 25.167818,22.290854 0 0 0 25.16746,-22.29231 25.167818,22.290854 0 0 0 -25.16746,-22.29013 z m -69.99308,35.76388 a 34.386738,29.054589 0 0 0 -34.38601,29.05423 34.386738,29.054589 0 0 0 34.38601,29.05422 34.386738,29.054589 0 0 0 34.38601,-29.05422 34.386738,29.054589 0 0 0 -34.38601,-29.05423 z m 81.58661,62.99124 c -5.37354,-0.19173 -11.22039,0.48032 -17.40626,2.50298 -4.58079,1.4978 -7.94705,4.68387 -12.35941,8.61311 -13.65306,12.15796 -26.71302,28.35803 -28.10794,30.30976 -5.74195,8.66067 -12.28609,23.90467 -15.88973,40.31599 -3.73687,17.01824 -8.45376,33.34971 -17.76778,55.35055 -10.40768,6.57934 -20.59648,12.81022 -31.00415,24.11265 -2.82695,3.11263 -5.55066,7.1336 1.05874,11.92963 11.89987,5.54231 32.82629,8.47808 62.03659,7.10022 23.39685,-3.50739 42.41763,-3.71109 66.21449,-21.4727 10.55213,-8.28607 22.26145,-17.84873 37.77876,-41.06373 11.1732,-25.04585 24.21936,-47.1436 12.55215,-71.81523 -5.85737,-12.38554 -13.69407,-25.54277 -25.06364,-33.96024 -4.05156,-2.9995 -15.92022,-11.35069 -32.04045,-11.92564 z m -114.42162,12.97138 a 32.052063,27.919193 0 0 0 -32.0517,27.91883 32.052063,27.919193 0 0 0 32.0517,27.91883 32.052063,27.919193 0 0 0 32.0517,-27.91883 32.052063,27.919193 0 0 0 -32.0517,-27.91883 z m 114.04411,28.58308 c 14.01895,-0.48893 24.81465,14.39898 28.27492,32.39762 -1.30723,10.92891 -9.47627,25.97109 -20.23748,40.16717 -11.25923,12.632 -17.81824,16.05961 -29.2633,21.4041 -9.04143,4.22215 -19.82515,4.29656 -29.04262,3.94339 -0.54124,-5.12489 -1.72719,-23.5297 2.18041,-36.9294 4.73831,-16.24981 6.65665,-18.29846 10.06974,-26.34351 4.28096,-7.41927 13.3968,-21.67197 27.84842,-31.68981 3.52796,-1.90124 6.93469,-2.83428 10.16956,-2.94709 z"
    />
  </symbol>
</svg>