<svg xmlns="http://www.w3.org/2000/svg">
  <symbol viewBox="0 0 135.46666 135.46667" id="icon">
    <path
      style="fill:currentColor;"
      d="m122.05 21.833c-0.26669-0.01082-0.47523 0.01401-0.57704 0.05554-1.853 0.31402-2.4721 1.1856-3.0046 1.6177-4.8162 5.05-7.428 9.571-11.659 14.715-3.8748 4.1634-7.2419 8.5215-11.811 12.418-2.1876 0.40642-4.3506 0.70119-6.7013 1.8404-1.6911 0.81195-4.2223 2.6729-5.8898 5.5644-0.21426 0.76399-1.0208 2.5663 0.33769 2.9205l4.1992 0.53978c3.5265 0.9604 5.3042 2.2093 7.3929 4.0589l7.6912 7.9592c0.78037 0.57777 1.2086 0.45617 1.5528 0.41198 0.29531-0.14005 1.7077-0.40598 3.0143-7.778 0.1489-1.1604 0.59986-4.0793-0.17776-7.765 3.1148-5.3548 5.474-9.331 8.1915-14.006 3.443-5.9992 3.4671-5.1689 9.8286-17.262 0.80167-2.187 0.37487-3.3743 0.24476-3.6949-0.5111-1.2081-1.8317-1.5637-2.6318-1.5962zm-60.458 8.1571c-1.2992-0.05088-2.733 0.11376-3.2915 0.44164-4.3956 1.2335-8.5778 3.7426-12.814 5.9289-3.5336 1.7587-6.8964 4.1985-10.265 6.6175-6.6484 5.3157-10.842 11.276-14.282 17.435-4.7228 11.243-4.3818 11.762-5.3554 18.453-0.19939 11.286 3.8253 18 5.738 19.98 2.0891 2.7831 4.1747 5.253 8.6118 6.9993 3.7864 0.78009 5.0048 0.30756 6.7899 0.0318 1.9608-0.4096 2.8247-1.5366 3.5995-2.4595 0.44184-0.6769 0.89551-1.7528 1.1017-2.7221 0.16246-1.4178 0.2219-4.6685-0.49762-6.1128-0.44476-0.94774-1.9487-3.2723-5.1004-6.809-2.322-4.0433-3.2713-4.2266-4.31-9.3693-0.67163-6.9303 1.2901-12.188 3.1942-17.483 2.6302-4.8202 3.7802-8.1815 12.647-16.702 4.9078-3.6368 10.69-7.4017 15.902-10.563 1.5343-0.82452 1.8378-3.1242-0.45061-3.5423-0.36581-0.06683-0.78421-0.1076-1.2173-0.12456zm16.378 8.1393a7.3341 5.7916 0 0 0-7.334 5.7914 7.3341 5.7916 0 0 0 7.334 5.792 7.3341 5.7916 0 0 0 7.334-5.792 7.3341 5.7916 0 0 0-7.334-5.7914zm-20.397 9.2922a10.021 7.5489 0 0 0-10.02 7.5488 10.021 7.5489 0 0 0 10.02 7.5488 10.021 7.5489 0 0 0 10.02-7.5488 10.021 7.5489 0 0 0-10.02-7.5488zm23.775 16.366c-1.5659-0.0498-3.2697 0.12479-5.0723 0.65032-1.3349 0.38915-2.3158 1.217-3.6016 2.2378-3.9786 3.1588-7.7845 7.368-8.1909 7.8751-1.6733 2.2502-3.5803 6.2109-4.6304 10.475-1.0889 4.4217-2.4635 8.6649-5.1777 14.382-3.0329 1.7094-6.002 3.3283-9.0349 6.2649-0.8238 0.80873-1.6175 1.8534 0.30851 3.0995 3.4677 1.44 9.5658 2.2027 18.078 1.8448 6.8181-0.91128 12.361-0.96426 19.295-5.579 3.075-2.1529 6.4871-4.6375 11.009-10.669 3.256-6.5074 7.0578-12.249 3.6578-18.659-1.7069-3.218-3.9905-6.6365-7.3038-8.8236-1.1806-0.77934-4.6393-2.9491-9.3369-3.0985zm-33.343 3.3702a9.3402 7.2539 0 0 0-9.3402 7.2538 9.3402 7.2539 0 0 0 9.3402 7.2538 9.3402 7.2539 0 0 0 9.3402-7.2538 9.3402 7.2539 0 0 0-9.3402-7.2538zm33.233 7.4264c4.0852-0.12703 7.2312 3.7411 8.2396 8.4175-0.38094 2.8395-2.7615 6.7478-5.8974 10.436-3.281 3.2821-5.1924 4.1726-8.5275 5.5612-2.6347 1.097-5.7773 1.1164-8.4632 1.0246-0.15774-1.3315-0.50332-6.1134 0.63539-9.5952 1.3808-4.222 1.9398-4.7543 2.9344-6.8446 1.2475-1.9277 3.904-5.6308 8.1153-8.2336 1.0281-0.49398 2.0208-0.73641 2.9635-0.76572z"
    />
  </symbol>
</svg>