<svg xmlns="http://www.w3.org/2000/svg">
  <symbol viewBox="0 0 512 512" id="icon">
    <path
      style="fill:currentColor;"
      d="m 447.1033,75.555882 c -0.95287,-0.0439 -1.69799,0.0561 -2.0618,0.22268 -6.62119,1.25836 -8.83291,4.75113 -10.73586,6.48287 -17.2089,20.237728 -26.5407,38.357478 -41.66071,58.970508 -13.84482,16.68469 -25.87589,34.14984 -42.20494,49.7676 -7.81663,1.6287 -15.54482,2.81001 -23.94461,7.37556 -6.04256,3.25391 -15.08675,10.71168 -21.04465,22.29942 -0.76556,3.06168 -3.64745,10.2846 1.20663,11.70415 l 15.00397,2.16316 c 12.60064,3.84898 18.95236,8.85409 26.41561,16.26593 l 27.48102,31.89654 c 2.78832,2.31544 4.31838,1.82812 5.54821,1.65101 1.05507,-0.56117 6.1019,-1.62697 10.77025,-31.17051 0.53207,-4.65021 2.14332,-16.34756 -0.63513,-31.11835 11.1293,-21.45963 19.55895,-37.3941 29.2687,-56.12838 12.30206,-24.04174 12.38823,-20.71433 35.1185,-69.174988 2.86444,-8.76451 1.3394,-13.52282 0.87456,-14.80707 -1.82629,-4.84146 -6.54484,-6.26668 -9.40361,-6.39669 z M 231.08216,108.24534 c -4.64228,-0.20386 -9.76531,0.45591 -11.76085,1.76987 -15.70582,4.94312 -30.64932,14.99869 -45.78785,23.76017 -12.62595,7.04789 -24.64153,16.82567 -36.67639,26.51992 -23.75525,21.30278 -38.739191,45.19069 -51.029911,69.8704 -16.8748,45.05464 -15.65631,47.13711 -19.13528,73.94842 -0.71234,45.23227 13.66795,72.13429 20.5023,80.0711 7.46439,11.15311 14.916671,21.05145 30.770631,28.04983 13.52925,3.12623 17.8824,1.23262 24.26095,0.12737 7.00632,-1.64153 10.09298,-6.15784 12.86142,-9.85639 1.57874,-2.71273 3.19974,-7.02446 3.93628,-10.90896 0.58056,-5.682 0.79285,-18.70896 -1.77804,-24.49716 -1.58914,-3.79796 -6.96285,-13.11351 -18.22443,-27.28676 -8.29662,-16.20357 -11.68866,-16.93792 -15.40006,-37.54755 -2.39979,-27.77318 4.60977,-48.84541 11.41351,-70.06316 9.39794,-19.31669 13.50695,-32.78773 45.18692,-66.93379 17.5362,-14.57463 38.19875,-29.66251 56.81624,-42.33344 5.48207,-3.30429 6.56677,-12.52014 -1.61004,-14.19556 -1.30712,-0.26781 -2.80207,-0.43123 -4.34937,-0.49922 z m 58.52076,32.61841 a 26.205465,23.209886 0 0 0 -26.20509,23.20913 26.205465,23.209886 0 0 0 26.20509,23.2114 26.205465,23.209886 0 0 0 26.20509,-23.2114 26.205465,23.209886 0 0 0 -26.20509,-23.20913 z m -72.87883,37.23839 a 35.804473,30.252484 0 0 0 -35.80372,30.25211 35.804473,30.252484 0 0 0 35.80372,30.2521 35.804473,30.252484 0 0 0 35.80371,-30.2521 35.804473,30.252484 0 0 0 -35.80371,-30.25211 z m 84.95035,65.58831 c -5.59508,-0.19963 -11.68299,0.50013 -18.1239,2.60618 -4.76965,1.55955 -8.2747,4.87698 -12.86898,8.96822 -14.21596,12.65922 -27.81437,29.52721 -29.26681,31.55941 -5.97868,9.01774 -12.79263,24.89023 -16.54485,41.97818 -3.89093,17.71988 -8.8023,34.72469 -18.50033,57.6326 -10.83677,6.8506 -21.44565,13.33838 -32.28242,25.10679 -2.9435,3.24097 -5.77951,7.42772 1.10239,12.42148 12.39049,5.77082 34.17969,8.82763 64.59431,7.39296 24.36148,-3.652 44.16647,-3.8641 68.94445,-22.358 10.98719,-8.6277 23.17927,-18.58462 39.33635,-42.75675 11.63386,-26.07847 25.2179,-49.08729 13.06966,-74.77611 -6.09887,-12.89619 -14.25867,-26.59588 -26.09699,-35.36039 -4.21861,-3.12317 -16.5766,-11.81867 -33.36145,-12.41733 z m -119.13912,13.50618 a 33.373541,29.070277 0 0 0 -33.37316,29.0699 33.373541,29.070277 0 0 0 33.37316,29.0699 33.373541,29.070277 0 0 0 33.37316,-29.0699 33.373541,29.070277 0 0 0 -33.37316,-29.0699 z m 118.74605,29.76154 c 14.59694,-0.50909 25.83773,14.99264 29.44067,33.73334 -1.36113,11.3795 -9.86697,27.04186 -21.07186,41.82323 -11.72343,13.15281 -18.55287,16.72173 -30.4698,22.28657 -9.4142,4.39623 -20.64252,4.47371 -30.24002,4.10597 -0.56355,-5.33618 -1.7984,-24.4998 2.27031,-38.45196 4.93367,-16.91978 6.9311,-19.05289 10.48491,-27.42963 4.45746,-7.72516 13.94913,-22.56549 28.99658,-32.99635 3.67342,-1.97963 7.2206,-2.95114 10.58884,-3.0686 z"
    />
  </symbol>
</svg>