<svg xmlns="http://www.w3.org/2000/svg"><symbol viewBox="0 0 512 512" id="icon"><path style="opacity:0.77600002;fill:currentColor;fill-opacity:1;fill-rule:nonzero;stroke:none;stroke-width:1.00157475;stroke-linecap:round;stroke-miterlimit:4;stroke-dasharray:none;stroke-dashoffset:0;stroke-opacity:1" d="m 235.97056,58.279332 c -6.50287,0.985396 -10.12737,4.470513 -15.26231,16.003248 -30.71906,90.56411 -69.06516,173.65696 -97.95959,255.99762 -0.60016,-0.63336 -1.19486,-1.28235 -1.77885,-1.96183 -20.1901,-28.82677 -6.39206,-58.33222 -8.12022,-87.83364 -1.24885,-1.21622 -4.07099,-2.86203 -6.12887,-0.5185 -13.907225,18.75065 -24.665189,37.96243 -28.797288,58.14195 -11.525018,60.71112 16.783181,81.06728 27.338538,86.42272 -5.84835,20.13746 -10.924576,40.31759 -14.941739,60.63973 -0.02722,8.84711 1.623458,14.32071 4.801295,16.71918 8.330734,0.69 13.813054,-4.436 18.397094,-11.39957 8.39845,-17.35818 15.70001,-34.08646 22.36933,-50.55636 l 0.0289,0.0149 c 31.455,7.42058 68.89676,10.67353 133.98505,-5.31961 46.09372,-10.86464 116.20706,-40.25872 161.98215,-91.5828 1.37923,-2.94363 -2.05139,-6.2953 -4.70948,-5.3645 -47.4204,22.2499 -119.85637,79.41737 -270.86139,54.38531 -0.63765,-0.38188 -1.28599,-0.73103 -1.9284,-1.09933 7.94249,-22.30074 15.48839,-44.77457 23.72838,-68.34496 l 2.59743,-1.71005 3.30056,0.85502 c 24.53551,34.46547 56.05938,48.44076 85.49196,48.26051 53.67651,-7.4e-4 97.18923,-41.25938 97.18823,-92.15364 -0.0316,-28.76612 -14.22905,-55.86804 -38.38415,-73.27323 -0.34069,-5.48163 1.48576,-25.75611 -8.41144,-35.21821 -13.40673,2.4153 -21.54244,8.56897 -28.44048,17.64401 -7.01359,-1.54131 -14.75277,-1.26452 -21.95216,-1.30375 -14.61957,-1.6e-4 -28.47678,3.07548 -40.91335,8.56027 l -5.68285,0.0847 -0.39881,-5.03545 -2.9621,9.49257 c 7.50827,-23.95654 14.56329,-47.91262 20.7584,-71.622999 0.87189,-2.598952 4.81501,-19.977189 1.25392,-27.405992 -1.33121,-1.977856 -3.39332,-1.840856 -5.58772,-1.517415 z m 33.73193,123.355478 c 32.1392,5.4e-4 58.19285,24.58502 58.19276,54.9113 9e-5,30.32628 -26.05356,54.91076 -58.19276,54.9113 -32.13923,-5.3e-4 -58.19288,-24.58502 -58.1928,-54.9113 -8e-5,-30.32628 26.05357,-54.91077 58.1928,-54.9113 z"/></symbol></svg>