<svg xmlns="http://www.w3.org/2000/svg"><symbol viewBox="0 0 512 512" id="icon"><g><path style="fill:currentColor;fill-opacity:1;stroke:none;stroke-width:0.98244691px;stroke-linecap:butt;stroke-linejoin:miter;stroke-opacity:1" d="m 148.91438,134.42998 c -2.94052,0.21433 -4.04107,1.90117 -5.14843,3.58203 -2.89185,13.16843 -10.6022,23.71462 -19.36914,33.68555 -10.63453,11.0674 -21.87785,17.25744 -33.052739,24.00195 -0.9258,4.20257 -1.47089,8.3502 1.47266,12 15.682049,18.0339 35.209369,26.13398 44.843749,59.79102 1.38034,31.89828 3.65708,76.76936 3.58008,92.0039 1.01409,4.62511 4.35667,13.6544 9.05273,13.6836 4.57378,-1.07677 8.03864,-9.05849 9.05273,-13.6836 -0.077,-15.23454 2.19779,-60.10562 3.57813,-92.0039 9.63438,-33.65705 29.16171,-41.75712 44.84376,-59.79102 2.94355,-3.6498 2.4004,-7.79743 1.47461,-12 -11.17489,-6.74451 -22.42016,-12.93455 -33.0547,-24.00195 -8.76694,-9.97093 -16.47729,-20.51712 -19.36914,-33.68555 -1.26556,-1.92098 -2.52084,-3.84833 -6.52539,-3.57812 -0.50057,-0.0338 -0.95883,-0.0345 -1.37891,-0.004 z m 2.8379,51.06445 c 9.54288,5.48239 17.62331,11.06661 21.13867,16.97071 -3.21486,5.80216 -14.00646,15.39271 -21.13867,20.30078 -7.13223,-4.90807 -17.92577,-14.49862 -21.14063,-20.30078 3.51536,-5.9041 11.59774,-11.48832 21.14063,-16.97071 z"/><path style="fill:currentColor;fill-opacity:1;stroke:none;stroke-width:0.98244691px;stroke-linecap:butt;stroke-linejoin:miter;stroke-opacity:1" d="m 343.35507,134.17306 c -2.94052,0.21433 -4.04107,1.90117 -5.14843,3.58203 -2.89185,13.16843 -10.6022,23.71462 -19.36914,33.68555 -10.63453,11.0674 -21.87785,17.25744 -33.05274,24.00195 -0.9258,4.20257 -1.47089,8.3502 1.47266,12 15.68205,18.03391 35.20937,26.13399 44.84375,59.79102 1.38034,31.89828 3.65708,76.76936 3.58008,92.0039 1.01409,4.62511 4.35667,13.6544 9.05273,13.6836 4.57378,-1.07677 8.03864,-9.05849 9.05273,-13.6836 -0.077,-15.23454 2.19779,-60.10562 3.57813,-92.0039 9.63438,-33.65704 29.1617,-41.75711 44.84375,-59.79102 2.94355,-3.6498 2.4004,-7.79743 1.47461,-12 -11.17489,-6.74451 -22.42015,-12.93455 -33.05469,-24.00195 -8.76694,-9.97093 -16.47729,-20.51712 -19.36914,-33.68555 -1.26556,-1.92098 -2.52084,-3.84833 -6.52539,-3.57812 -0.50057,-0.0338 -0.95883,-0.0345 -1.37891,-0.004 z m 2.8379,51.06445 c 9.54288,5.48239 17.62331,11.06661 21.13867,16.97071 -3.21486,5.80216 -14.00646,15.39272 -21.13867,20.30079 -7.13223,-4.90807 -17.92577,-14.49863 -21.14063,-20.30079 3.51536,-5.9041 11.59774,-11.48832 21.14063,-16.97071 z"/><path style="fill:currentColor;fill-opacity:1;stroke:none;stroke-width:0.98244685px;stroke-linecap:butt;stroke-linejoin:miter;stroke-opacity:1" d="m 246.73106,61.670611 c -3.16223,0.225101 -4.34575,1.996718 -5.5366,3.762054 -3.10989,13.830245 -11.40156,24.90646 -20.82949,35.378505 -11.43633,11.62362 -23.52735,18.12476 -35.54478,25.20823 -0.9956,4.41378 -1.58179,8.76986 1.58369,12.60308 16.86441,18.94025 37.86401,27.44742 48.22478,62.79596 1.48441,33.50141 3.93281,80.62761 3.85,96.6278 1.09055,4.85755 4.68515,14.34063 9.73527,14.3713 4.91862,-1.13089 8.64472,-9.51375 9.73527,-14.3713 -0.0828,-16.00019 2.36349,-63.12639 3.8479,-96.6278 10.36077,-35.34855 31.36036,-43.85571 48.22477,-62.79596 3.16548,-3.83322 2.58138,-8.1893 1.58579,-12.60308 -12.01743,-7.08347 -24.11053,-13.58461 -35.54686,-25.20823 -9.42793,-10.472045 -17.71961,-21.54826 -20.82949,-35.378505 -1.36098,-2.017524 -2.7109,-4.041738 -7.01738,-3.757948 -0.53831,-0.03549 -1.03112,-0.03623 -1.48287,-0.0042 z m 3.05186,53.630829 c 10.26237,5.75792 18.95203,11.62279 22.73244,17.82361 -3.45725,6.09376 -15.06249,16.16632 -22.73244,21.32105 -7.66997,-5.15473 -19.2773,-15.22729 -22.73454,-21.32105 3.7804,-6.20082 12.47216,-12.06569 22.73454,-17.82361 z" /><path style="fill:currentColor;fill-opacity:1;stroke:none;stroke-width:0.98244691px;stroke-linecap:butt;stroke-linejoin:miter;stroke-opacity:1" d="m 244.38388,324.5 -21.5,-20.25 c -4.83365,-5.11061 -11.05964,-9.20321 -1.375,-17.5625 4.82616,-4.36895 7.41587,-6.65145 7.875,-8.4375 2.39366,-3.03899 -3.55111,-14.59495 -9.75,-13 -9.67365,2.9858 -30.68222,19.62785 -33.6875,22.5 -1.59119,1.52071 -1.06634,9.91008 -0.85754,10.72066 1.12289,4.35919 3.94674,7.12031 4.79504,7.71684 20.66717,14.53327 37.80521,33.67548 45.5,58.1875 3.91667,37.41667 -4.00314,100.05016 11.75,112.25 l 1.0625,0.25 0.9375,-0.25 c 15.75314,-12.19984 7.83333,-74.83333 11.75,-112.25 7.69479,-24.51202 24.83283,-43.65423 45.5,-58.1875 0.8483,-0.59653 3.67215,-3.35765 4.79504,-7.71684 0.2088,-0.81058 0.73365,-9.19995 -0.85754,-10.72066 -3.00528,-2.87215 -24.01385,-19.5142 -33.6875,-22.5 -6.19889,-1.59495 -12.14366,9.96101 -9.75,13 0.45913,1.78605 3.04884,4.06855 7.875,8.4375 9.68464,8.35929 3.45865,12.45189 -1.375,17.5625 l -21.5,20.25 c -1.22917,1.17882 -2.45833,1.90316 -3.6875,2.375 -2.05059,-1.01 -2.72356,-1.63426 -3.8125,-2.375 z"/></g></symbol></svg>