<svg xmlns="http://www.w3.org/2000/svg"><symbol viewBox="0 0 290.226 290.226" id="icon"><path d="m 172.63194,168.31509 c 2.18397,2.1821 5.75739,2.1821 7.94136,6.3e-4 l 5.49421,-5.4886 c 2.18397,-2.18147 2.18397,-5.75178 0,-7.93325 L 92.278603,61.2035 C 90.094638,59.022029 85.792189,57.008316 82.718298,56.728928 L 59.72991,54.638507 c -3.074515,-0.279387 -5.360756,2.006854 -5.081368,5.081368 l 2.086678,22.94411 c 0.279388,3.074515 2.294973,7.37447 4.478938,9.556564 l 93.794522,93.701601 c 2.18396,2.18147 5.75738,2.18147 7.94135,0 l 5.5017,-5.49609 c 2.18396,-2.18147 2.18396,-5.75177 0,-7.93387 L 89.923762,94.037195 c -1.156217,-1.152476 -1.157464,-3.025872 -0.0019,-4.179594 1.152476,-1.155593 3.026495,-1.155593 4.183959,-0.0012 z m 46.38277,34.16516 c 4.43154,0 8.59616,1.72372 11.73179,4.85436 3.13002,3.12753 4.85312,7.28779 4.85312,11.7106 0,4.42593 -1.72372,8.58245 -4.85312,11.70934 -3.135,3.12815 -7.30025,4.85375 -11.73179,4.85499 -4.42905,0 -8.5943,-1.72746 -11.72681,-4.85499 -3.13252,-3.12752 -4.85811,-7.28528 -4.85811,-11.70934 0,-4.42344 1.72622,-8.5837 4.85811,-11.7106 3.13188,-3.13064 7.29776,-4.85436 11.72681,-4.85436 z m -23.28711,4.03678 c 1.21296,-2.23136 2.74461,-4.30744 4.59181,-6.15464 1.93701,-1.93452 4.1322,-3.51293 6.48579,-4.75833 2.81259,-1.48861 0.58934,-4.67725 0.58934,-4.67725 -2.8787,-4.37978 -5.50357,-8.78014 -7.67382,-12.61362 l 14.56996,-14.55811 h 14.14464 c 2.72029,0 4.92546,-2.20704 4.92546,-4.92795 0,-2.71967 -2.20517,-4.92671 -4.92546,-4.92671 h -16.18143 c -1.30963,0 -2.56126,0.51887 -3.48486,1.44184 l -53.24523,53.19035 c -0.92485,0.92485 -1.44371,2.1796 -1.44371,3.48549 v 16.26001 c 0,2.72216 2.20579,4.92483 4.9267,4.92483 2.72341,0 4.9292,-2.20205 4.9292,-4.92483 V 214.0605 l 14.51196,-14.49325 c 3.91705,2.31181 8.4702,5.14623 12.98156,8.26315 6.3e-4,-0.001 2.58496,1.83847 4.29809,-1.31337 z" style="fill:currentColor;fill-opacity:1;stroke-width:0.62363374"/></symbol></svg>