<svg xmlns="http://www.w3.org/2000/svg">
  <symbol viewBox="0 0 512 512" id="icon">
    <path
      style="fill:currentColor;"
      d="M 135.37504 69.548348 C 77.317007 124.7766 65.30251 194.12769 86.250039 262.87843 C 100.29514 255.99379 109.12279 266.24747 114.83012 284.40186 C 118.74479 296.85401 120.518 313.32052 124.18559 326.68702 C 144.98978 421.71667 170.10931 452.72872 195.92973 473.35108 C 184.12422 404.92023 173.66259 337.07608 201.64457 286.05225 C 215.75139 251.05771 237.85427 221.32275 204.92973 152.271 C 132.89874 154.43221 137.96676 109.0507 135.37504 69.548348 z M 371.62309 70.038582 C 369.03137 109.54093 374.09939 154.92245 302.0684 152.76124 C 269.14385 221.81299 291.24674 251.54794 305.35356 286.54249 C 333.33554 337.56632 322.87391 405.41046 311.0684 473.84132 C 336.88881 453.21896 362.00835 422.20691 382.81254 327.17725 C 386.48013 313.81076 388.25333 297.3462 392.16801 284.89405 C 397.87533 266.73966 406.70299 256.48403 420.74809 263.36866 C 441.69562 194.61793 429.68112 125.26684 371.62309 70.038582 z M 123.76762 155.74952 C 137.12811 174.68456 155.08302 187.23877 179.21293 191.21632 C 186.97089 221.95301 183.58053 239.13165 175.84574 249.5796 C 164.47456 271.54855 164.19586 295.7369 161.2559 319.3921 C 151.73114 296.88548 169.09243 232.71065 120.17582 234.54054 C 110.51866 197.03507 117.0469 176.29218 123.76762 155.74952 z M 383.23051 156.23975 C 389.95122 176.78241 396.47947 197.52531 386.82231 235.03077 C 337.90569 233.20088 355.26699 297.37571 345.74223 319.88233 C 342.80227 296.22714 342.52356 272.03878 331.15238 250.06983 C 323.41759 239.62188 320.02723 222.44324 327.7852 191.70655 C 351.9151 187.729 369.87001 175.1748 383.23051 156.23975 z "
    />
  </symbol>
</svg>